<?xml version="1.0" standalone="no"?>
<!DOCTYPE svg PUBLIC "-//W3C//DTD SVG 1.1//EN" "http://www.w3.org/Graphics/SVG/1.1/DTD/svg11.dtd" >
<svg xmlns="http://www.w3.org/2000/svg">
<metadata></metadata>
<defs>
<font id="PakenhamFreeRegular" horiz-adv-x="731" >
<font-face units-per-em="2048" ascent="1638" descent="-410" />
<missing-glyph horiz-adv-x="423" />
<glyph horiz-adv-x="0" />
<glyph horiz-adv-x="2048" />
<glyph unicode=" "  horiz-adv-x="423" />
<glyph unicode="&#x09;" horiz-adv-x="423" />
<glyph unicode="&#xa0;" horiz-adv-x="423" />
<glyph unicode="!" horiz-adv-x="290" d="M70 68q0 33 25.5 54t56.5 21t54 -21.5t23 -53.5q0 -33 -23.5 -54.5t-53.5 -21.5q-31 0 -56.5 21.5t-25.5 54.5zM82 872v195h123v-193l-35 -538h-39z" />
<glyph unicode="&#x22;" horiz-adv-x="223" d="M29 1124h59l-12 -372h-37zM131 1124h59l-12 -372h-37z" />
<glyph unicode="#" horiz-adv-x="827" d="M49 281v84h176l68 348h-172v84h188l58 270h39l-52 -270h219l52 270h41l-56 -270h164v-84h-178l-74 -348h178v-84h-194l-51 -281h-39l51 281h-219l-58 -281h-36l57 281h-162zM266 365h215l76 348h-217z" />
<glyph unicode="$" horiz-adv-x="634" d="M74 797q0 68 56 124t167 64v84h33v-82q45 0 78.5 -3t60.5 -7l-2 -98q-41 6 -92 6q-31 0 -61.5 -4t-55.5 -16.5t-40 -35t-15 -57.5q0 -53 34.5 -101t137.5 -112q98 -66 146 -130t48 -161q0 -92 -58 -151.5t-194 -69.5v-53h-26v51q-133 2 -176 23v106q23 -6 63.5 -11 t89.5 -5q35 0 67 2t55.5 15t37.5 40t14 76q0 41 -30.5 82t-72.5 75.5t-83 63.5t-59 45q-37 33 -60.5 57.5t-37 50t-18.5 56.5t-7 76z" />
<glyph unicode="%" horiz-adv-x="923" d="M45 852q0 51 2 92t20.5 69.5t61.5 45t123 16.5h20q45 0 76 -7t49.5 -27.5t26.5 -58.5t8 -99q0 -59 -9 -97t-32.5 -59.5t-63.5 -30t-100 -8.5q-94 0 -138 39t-44 125zM96 883q0 -55 11.5 -84t33 -42.5t52 -15.5t69.5 -2q37 0 60.5 5.5t37 20.5t18.5 43t5 75t-5 75.5 t-20.5 44t-41 19.5t-64.5 4q-47 0 -77 -4t-47 -19.5t-24.5 -43t-7.5 -76.5zM217 2l430 1063h64l-430 -1063h-64zM494 154q0 49 1 89t18 68.5t55 46t112 21.5h41q45 0 75.5 -7t49 -27.5t27 -58.5t8.5 -100q0 -59 -10.5 -97t-33 -59.5t-62.5 -29.5t-97 -8q-98 0 -141 38 t-43 124zM553 186q0 -53 7 -81.5t25.5 -42t49.5 -16.5t78 -3q33 0 56.5 4t36.5 19.5t19 43t6 76.5q-4 49 -7 77t-16 43.5t-43 19.5t-85 4q-74 0 -100.5 -25.5t-26.5 -118.5z" />
<glyph unicode="&#x26;" horiz-adv-x="1015" d="M74 270q0 94 35.5 169t146.5 122q-41 49 -66.5 86t-41 69t-20.5 61.5t-5 64.5q0 113 70.5 176t246.5 63q154 0 201 -18v-111q-47 10 -93 16.5t-93 6.5q-39 0 -76 -5t-65.5 -17.5t-46 -33t-17.5 -51.5q-2 -59 20.5 -111t85.5 -122l291 -328q14 27 25.5 64t18.5 72.5 t10.5 68.5t3.5 53v15h135q0 -53 -4.5 -98.5t-16.5 -88.5t-32.5 -88t-53.5 -94l187 -211h-172l-101 123q-131 -131 -280 -131q-84 0 -140.5 19.5t-90.5 55t-48 87t-14 116.5zM188 303q0 -61 13.5 -100t38 -60.5t58.5 -30t75 -8.5q80 6 123 32t82 71l-242 266 q-147 -53 -148 -170z" />
<glyph unicode="'" horiz-adv-x="100" d="M18 1124h66l-12 -372h-43z" />
<glyph unicode="(" horiz-adv-x="276" d="M39 418q0 211 32.5 396t102.5 345h59q-68 -141 -105.5 -318t-37.5 -401q0 -223 39 -409.5t111 -352.5h-66q-70 162 -102.5 345.5t-32.5 394.5z" />
<glyph unicode=")" horiz-adv-x="276" d="M53 1157h70q131 -305 131 -741q0 -432 -131 -740h-64q139 274 140 717q0 223 -35 410.5t-111 353.5z" />
<glyph unicode="*" horiz-adv-x="612" d="M47 776l215 43l-180 121l45 45l160 -131l-8 205h67l-4 -203l154 137l47 -49l-172 -123l211 -39l-13 -57l-211 47l101 -176l-53 -27l-93 189l-77 -193l-60 27l96 180l-209 -55z" />
<glyph unicode="+" horiz-adv-x="491" d="M31 541v80h192v198h62v-198h180v-80h-180v-201h-62v201h-192z" />
<glyph unicode="," horiz-adv-x="247" d="M49 55q0 33 16.5 59.5t45.5 26.5q37 0 61.5 -19.5t24.5 -78.5q0 -53 -28 -111.5t-93 -89.5v29q23 12 48.5 40t31.5 71q-20 -4 -19 -5h-16q-39 0 -55.5 24t-16.5 54z" />
<glyph unicode="-" horiz-adv-x="372" d="M68 541v80h227v-80h-227z" />
<glyph unicode="." horiz-adv-x="253" d="M45 68q0 33 21.5 54t62.5 21q33 0 54.5 -21.5t21.5 -53.5q0 -33 -21.5 -54.5t-54.5 -21.5q-41 0 -62.5 21.5t-21.5 54.5z" />
<glyph unicode="/" horiz-adv-x="419" d="M25 -82l317 1264h49l-309 -1264h-57z" />
<glyph unicode="0" horiz-adv-x="847" d="M70 535q0 371 98 454q102 84 258 84h12q160 0 248 -82q92 -84 92 -454q0 -190 -24.5 -299t-68.5 -164.5t-107.5 -68.5t-143.5 -13q-164 0 -262 86q-102 90 -102 457zM188 532q0 -309 72 -362t172 -53q109 0 168 53q57 51 57 365q0 311 -61 364q-59 53 -170 53t-174 -57 q-63 -55 -64 -363z" />
<glyph unicode="1" horiz-adv-x="364" d="M57 946v123h215v-1069h-120v946h-95z" />
<glyph unicode="2" horiz-adv-x="710" d="M72 0v70q0 88 14 157.5t49 131t92.5 120t143.5 125.5q111 104 110 211q0 45 -17.5 72.5t-45 42t-61 18.5t-66.5 4q-45 0 -85 -8t-71 -22v133q27 8 60.5 13t87.5 5q63 0 122.5 -6t105.5 -33.5t74.5 -82t28.5 -148.5q0 -78 -33.5 -142.5t-97.5 -117.5q-82 -70 -134 -115 t-81.5 -86t-41 -90t-11.5 -129h422v-123h-565z" />
<glyph unicode="3" horiz-adv-x="630" d="M78 4v119q39 -8 63.5 -10t67.5 -2q31 0 70.5 9t73.5 32.5t57.5 63.5t23.5 99q0 55 -18.5 91t-52 55.5t-79.5 28t-102 8.5v120q8 0 15.5 -1t15.5 -1q61 0 102 15.5t67 42t36 58.5t10 67q0 82 -60.5 124t-172.5 42q-39 0 -70 -4.5t-47 -8.5v111q33 8 68.5 15t80.5 7 q25 0 58.5 -2t70.5 -10t72 -26.5t63.5 -53.5t46 -88t17.5 -129q0 -154 -147 -217q156 -63 155 -225q0 -96 -23.5 -157.5t-59.5 -99.5t-80 -55.5t-86 -23.5t-77.5 -5t-54.5 1q-33 0 -59.5 2t-44.5 8z" />
<glyph unicode="4" horiz-adv-x="743" d="M39 307v148l377 612h157v-657h105v-103h-105v-309h-122v309h-412zM139 410h312v522z" />
<glyph unicode="5" horiz-adv-x="780" d="M72 561l45 506h479v-123h-373l-28 -317q43 33 102 44t123 11q51 0 102 -9t91 -46t66 -110t26 -198q0 -96 -30 -158.5t-81 -99t-118.5 -51t-141.5 -14.5q-154 0 -193 12v125q74 -23 193 -22q55 0 101 7t80 29.5t52.5 67.5t18.5 119t-13.5 120t-39 71.5t-61.5 34.5t-79 9 q-137 0 -192 -65z" />
<glyph unicode="6" horiz-adv-x="827" d="M74 330.5q-4 60.5 0 115t4 89.5q0 63 1 130.5t16.5 132t52 122t110.5 100.5q47 29 97.5 41t103.5 12q106 0 131 -12v-117q-23 4 -52.5 7t-68.5 3q-156 0 -216 -84t-60 -264v-33q57 94 260 95q96 0 156.5 -20.5t94 -60.5t46 -101.5t12.5 -141.5q0 -180 -75 -266t-261 -86 q-106 0 -173 30.5t-105.5 79t-54 108.5t-19.5 120.5zM195 334q0 -72 15 -117t45 -70.5t74 -35t101 -9.5q49 0 89 10.5t67.5 36t43 71.5t15.5 118q0 121 -51 170t-180 49q-57 0 -98.5 -10t-68 -35t-39.5 -67.5t-13 -110.5z" />
<glyph unicode="7" horiz-adv-x="688" d="M61 944v123h578v-158q-70 -63 -124 -161.5t-92 -219t-58.5 -257t-20.5 -271.5h-141q12 123 28.5 245t59.5 267q43 147 105.5 257t115.5 175h-451z" />
<glyph unicode="8" horiz-adv-x="829" d="M70 317q0 195 133 242q-86 49 -86 240q0 100 22.5 155.5t62.5 82t94 31.5t116 5q63 0 118.5 -6t95.5 -33.5t63.5 -82t23.5 -152.5q0 -195 -92 -240q139 -47 139 -244q0 -98 -24.5 -161.5t-69.5 -99.5t-108.5 -50t-143.5 -14t-143.5 14t-108.5 51t-68.5 100.5t-23.5 161.5 zM195 340q0 -78 13 -123t42 -67.5t73 -28.5t105 -6q59 0 99 8t63.5 31.5t34 65.5t10.5 110q0 98 -51 132t-170 34t-169 -38t-50 -118zM236 791q0 -66 14 -101t38.5 -50t57.5 -17t68 -2h24q27 0 55.5 3t50 18t36 46t14.5 84v16q0 8 1 15.5t1 15.5q0 47 -15.5 74t-40 40 t-56 16t-64.5 3q-47 0 -82 -4t-57.5 -19.5t-33.5 -48t-11 -89.5z" />
<glyph unicode="9" horiz-adv-x="827" d="M59 717q0 184 77 270t255 86q125 0 194.5 -38t102.5 -96t40 -126t9 -127q0 -31 1 -71t1 -85v-131q0 -49 -7 -99t-26.5 -96t-54.5 -87t-88 -72q-96 -53 -198 -53q-106 0 -132 12v117q23 -4 52.5 -7t66.5 -3q154 0 216.5 82.5t62.5 267.5v31q-57 -94 -262 -95 q-96 0 -156.5 20.5t-94.5 60.5t-46.5 99.5t-12.5 139.5zM176 741q0 -66 10.5 -109.5t37 -71.5t70.5 -40t112 -12q55 0 96 9t68.5 35t42 68.5t16.5 110.5q-4 70 -18.5 115t-42 70.5t-69.5 35t-100 9.5q-43 0 -84 -7.5t-71.5 -31t-49 -66.5t-18.5 -115z" />
<glyph unicode=":" horiz-adv-x="262" d="M51 68q0 33 21.5 54t62.5 21q33 0 56.5 -21.5t23.5 -53.5q0 -33 -23.5 -54.5t-56.5 -21.5q-41 0 -62.5 21.5t-21.5 54.5zM53 692q0 33 21.5 54.5t62.5 21.5q33 0 56.5 -21.5t23.5 -54.5t-23.5 -54.5t-56.5 -21.5q-41 0 -62.5 21.5t-21.5 54.5z" />
<glyph unicode=";" horiz-adv-x="253" d="M49 55q0 33 16.5 59.5t45.5 26.5q37 0 61.5 -19.5t24.5 -78.5q0 -53 -28 -111.5t-93 -89.5v29q23 12 48.5 40t31.5 71q-20 -4 -19 -5h-16q-39 0 -55.5 24t-16.5 54zM49 692q0 33 21.5 54.5t62.5 21.5q33 0 56.5 -21.5t23.5 -54.5t-23.5 -54.5t-56.5 -21.5 q-41 0 -62.5 21.5t-21.5 54.5z" />
<glyph unicode="&#x3c;" horiz-adv-x="329" d="M27 539v84l233 157v-78l-194 -116l194 -125v-72z" />
<glyph unicode="=" horiz-adv-x="548" d="M68 383v70h430v-70h-430zM68 621v69h430v-69h-430z" />
<glyph unicode="&#x3e;" horiz-adv-x="335" d="M68 389v74l204 121l-204 125v71l233 -151v-84z" />
<glyph unicode="?" horiz-adv-x="532" d="M66 948v107q76 25 149 24q135 0 201.5 -64.5t66.5 -180.5q0 -74 -23.5 -126.5t-76.5 -105.5q-47 -41 -72.5 -75.5t-36 -68.5t-11.5 -68t-1 -73h-123q0 211 107 312q80 74 106.5 121t26.5 92q0 63 -42 99t-140 36q-29 0 -61 -7t-70 -22zM123 68q0 33 21.5 54t54.5 21 q35 0 56 -21.5t21 -53.5q0 -33 -21.5 -54.5t-55.5 -21.5q-33 0 -54.5 21.5t-21.5 54.5z" />
<glyph unicode="@" horiz-adv-x="1198" d="M70 537q0 174 25.5 280.5t89 162.5t172 74.5t274.5 18.5q160 0 258 -22.5t153.5 -70.5t74 -123t18.5 -181q0 -129 -19.5 -204t-49.5 -112.5t-66.5 -49t-71.5 -11.5q-72 0 -113 12.5t-80 59.5q-72 -41 -139 -41q-59 0 -97 32.5t-38 104.5q0 86 40 120t103 34 q31 0 61.5 -8.5t57.5 -22.5v24q0 45 -34 68t-93 23q-12 0 -25.5 -1.5t-27.5 -3.5v64q10 2 20 3t25 1q29 0 64.5 -5t66.5 -21.5t51.5 -49.5t20.5 -90v-158q4 -41 36.5 -57t98.5 -16q121 0 121 200v29v21q0 94 -13.5 161.5t-58.5 110.5t-130 62.5t-229 19.5q-145 0 -232 -18.5 t-133 -67.5t-59.5 -134t-13.5 -216q0 -139 19.5 -226.5t66.5 -135.5t126 -65.5t200 -17.5q117 0 215 9.5t186 25.5v-98q-98 -23 -205.5 -31t-236.5 -8q-123 0 -214 18.5t-149.5 76.5t-87 164.5t-28.5 285.5zM526 473q0 -53 24.5 -65.5t78.5 -12.5q57 0 94 45v88 q-47 35 -107 35q-51 0 -70.5 -21.5t-19.5 -68.5z" />
<glyph unicode="A" horiz-adv-x="811" d="M27 0l278 1067h195l284 -1067h-129l-53 217h-397l-47 -217h-131zM236 328h344l-129 506l-43 194l-43 -197z" />
<glyph unicode="B" horiz-adv-x="802" d="M82 0v1067h317q141 0 213 -69.5t72 -223.5q0 -150 -104 -213h2q141 -49 141 -237q0 -184 -71.5 -254t-225.5 -70h-344zM205 121h205q193 0 192 178q0 182 -186 190h-211v-368zM205 612h168q188 0 188 166t-192 166h-164v-332z" />
<glyph unicode="C" horiz-adv-x="667" d="M59 537q0 371 99 448q94 88 241 88q150 0 187 -12v-121q-31 4 -69 7t-73 3h-30q-55 0 -98.5 -8t-73 -48t-46 -124t-16.5 -235q0 -154 17.5 -239t49.5 -125t78 -47t105 -7q51 0 91 2t65 8v-123q-41 -12 -191 -12q-145 0 -239 92q-96 90 -97 453z" />
<glyph unicode="D" horiz-adv-x="858" d="M82 0v1067h319q193 0 283 -86h2q92 -78 92 -446q0 -184 -21.5 -291t-68.5 -161t-119.5 -68.5t-175.5 -14.5h-311zM205 123h182q82 0 135 10t83 51t41 123t11 225q0 150 -13 234t-45 124t-84 48t-128 8h-182v-823z" />
<glyph unicode="E" horiz-adv-x="653" d="M82 0v1067h514v-123h-391v-332h241v-123h-241v-366h391v-123h-514z" />
<glyph unicode="F" horiz-adv-x="610" d="M82 0v1067h514v-123h-391v-332h250v-123h-250v-489h-123z" />
<glyph unicode="G" horiz-adv-x="897" d="M70 516q0 197 38.5 309.5t100 168t139.5 68.5t156 13q68 0 119 -6t94 -16v-107q-6 6 -201 10h-12q-92 0 -152.5 -18t-96.5 -67.5t-51.5 -136.5t-15.5 -222q0 -143 18.5 -223t53.5 -118t85 -46t114 -8q74 0 121 14t72.5 50t34.5 97.5t9 153.5v57h-172v123h293v-100 q0 -176 -23.5 -279.5t-69.5 -156.5t-114.5 -68.5t-158.5 -15.5t-161 15.5t-120 69.5t-74.5 157.5t-25.5 281.5z" />
<glyph unicode="H" horiz-adv-x="831" d="M82 0v1067h123v-455h416v455h122v-1067h-122v489h-416v-489h-123z" />
<glyph unicode="I" horiz-adv-x="294" d="M82 0v1067h123v-1067h-123z" />
<glyph unicode="J" horiz-adv-x="514" d="M41 -2v115q10 0 20.5 -1t20.5 -1q86 0 134 21.5t71.5 70.5t29 130t5.5 199v537h118v-530q0 -117 -10 -215.5t-37 -169.5q-12 -33 -34.5 -62t-60.5 -49t-92 -32.5t-130 -12.5h-35z" />
<glyph unicode="K" horiz-adv-x="790" d="M78 0v1067h123v-428l377 428h141l-404 -446l430 -621h-137l-409 598v-598h-121z" />
<glyph unicode="L" horiz-adv-x="667" d="M82 0v1067h123v-944h426v-123h-549z" />
<glyph unicode="M" horiz-adv-x="978" d="M82 0v1067h141l234 -668l39 -135l41 135l239 668h115v-1067h-90v715l8 174l-49 -156l-264 -733h-4l-267 723l-53 166l8 -176v-713h-98z" />
<glyph unicode="N" horiz-adv-x="843" d="M82 0v1067h162l327 -727l93 -199l-11 228v698h107v-1067h-148l-329 725l-97 211l4 -248v-688h-108z" />
<glyph unicode="O" horiz-adv-x="927" d="M72 537q0 369 98 452q102 84 293 84h16q195 0 285 -84t90 -454q0 -190 -22.5 -300t-69.5 -163.5t-120 -66.5t-173 -13h-12q-90 0 -161 13t-121 68.5t-76.5 164t-26.5 299.5zM193 530q0 -309 69 -360q72 -53 201 -53q154 0 213 53t59 362t-59 365q-59 55 -213 55 q-143 0 -207 -57q-63 -55 -63 -365z" />
<glyph unicode="P" horiz-adv-x="774" d="M82 0v1067h319q172 0 249 -84t77 -233q0 -150 -81 -231t-261 -81h-180v-438h-123zM205 559h221q192 0 192 191q0 194 -190 194h-2h-221v-385z" />
<glyph unicode="Q" horiz-adv-x="974" d="M61 535q0 188 26 295.5t76 162t122.5 67.5t169.5 13h14q197 0 285 -82q90 -80 90 -448q0 -367 -109 -469l150 -119l-72 -59l-154 118q-96 -22 -233 -22h-12q-150 0 -250 88q-102 90 -103 455zM182 530q0 -307 66 -360t207 -53q76 0 128 6t82.5 45t44 123t13.5 241 q0 309 -59 365q-59 55 -209 55q-143 0 -207 -57q-66 -55 -66 -365z" />
<glyph unicode="R" horiz-adv-x="790" d="M82 0v1067h319q172 0 249 -84t77 -225t-61.5 -216t-155.5 -89q12 -6 25.5 -17.5t26.5 -34t27.5 -60.5t28.5 -95q33 -193 109 -246h-147q-53 35 -84 240q-12 80 -39 129t-62 69h-190v-438h-123zM205 559h221q192 0 192 191q0 194 -190 194h-2h-221v-385z" />
<glyph unicode="S" horiz-adv-x="739" d="M74 836q0 57 28.5 102t81 75.5t122 47t153.5 16.5q45 0 69.5 -4t46.5 -8v-129q-61 27 -151 27q-39 0 -79 -7.5t-71.5 -22.5t-52 -41t-20.5 -63q0 -41 50 -102t169 -156q100 -80 153.5 -131t76 -86t25.5 -60.5t3 -53.5q0 -43 -17.5 -87t-54.5 -79t-92 -56.5t-131 -21.5 h-37q-113 0 -161 6t-64 14v127q39 -12 90 -18t104 -6q45 0 86 6t73 19.5t51.5 38t19.5 61.5q0 20 -7.5 39.5t-32 49t-73.5 75t-133 114.5q-86 70 -132 116t-66.5 80t-23.5 60.5t-3 57.5z" />
<glyph unicode="T" horiz-adv-x="778" d="M53 944v123h662v-123h-258v-944h-135v944h-269z" />
<glyph unicode="U" horiz-adv-x="872" d="M76 371v696h125v-737q0 -61 17.5 -102.5t49 -66t75.5 -33.5t99 -9q119 0 173.5 43t54.5 168v737h125v-694q0 -106 -21.5 -178t-64.5 -116t-110 -63.5t-157 -19.5q-178 0 -272 83t-94 292z" />
<glyph unicode="V" horiz-adv-x="819" d="M29 1067h143l162 -643l78 -328l77 328l162 643h140l-291 -1067h-187z" />
<glyph unicode="W" horiz-adv-x="1073" d="M25 1067h133l108 -594l35 -209l49 209l152 594h69l156 -598l47 -205l35 209l106 594h134l-218 -1067h-106l-150 623l-36 174l-39 -176l-152 -621h-106z" />
<glyph unicode="X" horiz-adv-x="798" d="M37 0l285 526l-285 541h139l174 -365l43 -108l43 106l178 367h148l-301 -541l295 -526h-150l-164 336l-49 119l-49 -121l-166 -334h-141z" />
<glyph unicode="Y" horiz-adv-x="782" d="M27 1067h143l172 -455l47 -149l47 149l172 455h146l-295 -670v-397h-137v397z" />
<glyph unicode="Z" horiz-adv-x="772" d="M78 0v154l442 706l60 84h-502v123h606v-160l-428 -676l-74 -108h504v-123h-608z" />
<glyph unicode="[" horiz-adv-x="372" d="M68 -274v1388h245v-80h-151v-1224h151v-84h-245z" />
<glyph unicode="\" horiz-adv-x="403" d="M20 1182h50l317 -1264h-57z" />
<glyph unicode="]" horiz-adv-x="370" d="M51 -190h150v1224h-150v80h242v-1388h-242v84z" />
<glyph unicode="^" horiz-adv-x="413" d="M47 866l135 209h66l139 -209h-57l-113 170l-104 -170h-66z" />
<glyph unicode="_" horiz-adv-x="673" d="M0 -190h674v-56h-674v56z" />
<glyph unicode="`" horiz-adv-x="354" d="M82 1288h102l80 -158h-49z" />
<glyph unicode="a" horiz-adv-x="737" d="M41 252q0 147 73.5 218t190.5 71t227 -31v59q0 63 -63 101.5t-180 38.5q-78 0 -117 -13v125q16 8 166 8q141 0 228 -73.5t87 -204.5v-551h-73l-56 61q-87 -69 -211 -69h-4q-123 0 -195.5 58.5t-72.5 201.5zM162 256q0 -47 16.5 -76.5t42 -45t57 -20.5t62.5 -5 q33 0 67.5 7t61.5 20.5t44 31.5t17 41v203q-25 6 -42 10t-37.5 6t-47 3t-69.5 1q-172 0 -172 -176z" />
<glyph unicode="b" horiz-adv-x="745" d="M76 0v1079l123 29v-354q69 75 199 75h3q63 0 115.5 -16t89.5 -61t57.5 -126t20.5 -212q0 -133 -25.5 -215t-66.5 -128t-95.5 -62.5t-111.5 -16.5q-125 0 -219 76l-53 -68h-37zM195 213h2q61 -94 180 -94q49 0 86 8t59.5 39t33.5 90t11 162q0 104 -12 162.5t-39 87 t-65.5 35t-90.5 6.5q-106 0 -163 -86h-2v-410z" />
<glyph unicode="c" horiz-adv-x="532" d="M59 412q0 129 21.5 211t61.5 128t98.5 62.5t130.5 15.5h14q33 0 64 -6v-129q-27 15 -78 15q-45 0 -80 -7.5t-59.5 -37t-38 -91t-13.5 -167.5t13.5 -165t39 -86.5t60.5 -32.5t78 -5q16 0 35.5 3t42.5 7v-129q-35 -6 -74 -6h-13q-72 0 -127 17.5t-95 63.5t-60.5 128 t-20.5 211z" />
<glyph unicode="d" horiz-adv-x="743" d="M49 406q0 131 23.5 212.5t62.5 127t91.5 61.5t107.5 16q109 0 198 -47v303l123 29v-1108h-55l-33 68q-82 -76 -223 -76q-68 0 -123 18.5t-93 64.5t-58.5 127t-20.5 204zM170 360q0 -74 11.5 -122t37 -75.5t65.5 -37.5t95 -10q113 0 160 98h4v393q-59 96 -195 96 q-66 0 -102.5 -22.5t-53 -65.5t-19.5 -107.5t-3 -146.5z" />
<glyph unicode="e" d="M59 471q0 174 87 266t229 92q68 0 123 -20.5t94 -67.5t59.5 -121.5t20.5 -181.5v-92h-490q4 -133 61.5 -183t178.5 -50q76 0 160 22v-131q-35 -12 -160 -12h-37q-86 0 -147.5 22.5t-101.5 77.5t-58.5 147.5t-18.5 231.5zM180 436h375q-2 92 -15.5 146.5t-37 82t-56 36 t-73.5 8.5q-66 0 -103 -20.5t-56 -56.5t-25.5 -86t-8.5 -110z" />
<glyph unicode="f" horiz-adv-x="442" d="M51 733v82h88v64q0 74 22.5 121t56.5 73.5t73 35.5t69 9q10 0 21.5 -1t21.5 -3v-100q-6 0 -14 1t-18 1q-18 0 -38 -4t-37 -18.5t-27.5 -41t-10.5 -71.5v-66h148v-82h-148v-733h-119v733h-88z" />
<glyph unicode="g" horiz-adv-x="784" d="M47 563q0 143 83 204.5t220 61.5q68 0 119 -6t90 -22l39 59q31 47 64.5 63.5t103.5 16.5v-61q-59 -2 -87 -8.5t-48 -39.5l-35 -53q82 -61 82 -260q0 -98 -14.5 -162.5t-51.5 -102.5t-97 -54.5t-153 -16.5q-31 0 -63.5 2t-75.5 11v-99q0 -59 84 -59h195q123 0 176 -45 t53 -172q0 -66 -17.5 -107t-60.5 -63.5t-116.5 -31.5t-186.5 -9q-223 0 -268 24v123q55 -22 229 -22h15q104 0 164.5 6t90 17.5t37 28.5t7.5 40q0 47 -32 70.5t-118 23.5h-141q-201 0 -201 164v80l82 33q-53 10 -86 32.5t-51.5 65.5t-24.5 107.5t-6 160.5zM168 506 q0 -74 13.5 -116t39 -61.5t61 -23.5t83.5 -4q43 0 78.5 4t61 23.5t41 60.5t15.5 113q0 66 -11 107.5t-33.5 65t-59.5 33t-88 9.5q-45 0 -82 -4t-63.5 -24.5t-41 -63.5t-14.5 -119z" />
<glyph unicode="h" horiz-adv-x="768" d="M76 0v1079l123 29v-350q35 37 94 53t158 16q47 0 90 -16t74.5 -48t50 -79t18.5 -106v-578h-117v539q0 100 -52 135t-132 35q-86 0 -137 -36t-51 -132v-541h-119z" />
<glyph unicode="i" horiz-adv-x="296" d="M66 1032q0 33 25.5 54.5t58.5 21.5q31 0 54 -21.5t23 -54.5t-23.5 -54.5t-53.5 -21.5q-33 0 -58.5 21.5t-25.5 54.5zM82 0v815h123v-815h-123z" />
<glyph unicode="j" horiz-adv-x="325" d="M-133 -250q12 -2 25.5 -3t29.5 -1q43 0 77 9t69 48q49 53 49 359v653h119v-711q0 -119 -15.5 -200.5t-40 -136t-57.5 -83t-66.5 -43t-67.5 -17.5t-61 -3q-53 0 -61 8v121zM96 1032q0 33 25.5 54.5t56.5 21.5q37 0 58.5 -21.5t21.5 -54.5t-21.5 -54.5t-58.5 -21.5 q-31 0 -56.5 21.5t-25.5 54.5z" />
<glyph unicode="k" horiz-adv-x="636" d="M82 0v1112l123 29v-645l227 321h150l-267 -325l283 -492h-135l-258 477v-477h-123z" />
<glyph unicode="l" horiz-adv-x="290" d="M78 0v1112l123 29v-1141h-123z" />
<glyph unicode="m" horiz-adv-x="1157" d="M82 0v815h117v-67q37 45 83 61t105 16q66 0 112 -18.5t87 -54.5q77 71 202 71h3q55 0 106 -11t91 -40t63.5 -76t23.5 -118v-578h-121v557q0 80 -33.5 121t-125.5 41q-88 0 -122 -41t-34 -121v-557h-125v557q0 80 -30.5 121t-125.5 41q-94 0 -126.5 -42t-32.5 -120v-557 h-117z" />
<glyph unicode="n" horiz-adv-x="778" d="M82 0v813h123v-55q35 37 94 53t158 16q47 0 90 -16t74.5 -48t50 -79t18.5 -106v-578h-117v539q0 100 -52 135t-132 35q-86 0 -137 -36t-51 -132v-541h-119z" />
<glyph unicode="o" d="M59 412q0 129 21.5 211t61.5 128t98.5 62t130.5 16h14q68 0 121 -17t90 -63.5t56.5 -128t19.5 -210.5t-18.5 -211t-55.5 -128t-92 -62.5t-131 -16.5h-13q-72 0 -127 17.5t-95 63.5t-60.5 128t-20.5 211zM180 406q0 -106 13.5 -165t39 -86.5t60.5 -32.5t78 -5q37 0 70.5 7 t59 34.5t40 85t14.5 159.5t-12.5 163t-37 92.5t-58 41t-76.5 9.5q-45 0 -80 -7.5t-59.5 -37t-38 -91t-13.5 -167.5z" />
<glyph unicode="p" horiz-adv-x="745" d="M76 -375v1190h86l28 -65q51 63 213 63q156 0 218.5 -96t62.5 -318q0 -115 -20.5 -193.5t-56.5 -127.5t-86 -70.5t-111 -21.5q-123 0 -211 67v-428h-123zM199 215h2q59 -109 180 -109q92 0 139 63.5t47 227.5q0 88 -13 147.5t-40 93.5t-66.5 48t-91.5 14q-53 0 -92 -27.5 t-63 -76.5h-2v-381z" />
<glyph unicode="q" horiz-adv-x="737" d="M41 399q0 113 15.5 192t49 128t88 71.5t132.5 22.5t138 -18.5t101 -51.5l58 72h26v-1190h-123v428q-89 -67 -209 -67h-4q-123 0 -197.5 95t-74.5 318zM158 397q0 -84 12 -140t35.5 -90t58.5 -47.5t80 -13.5q121 0 180 109h2v381h-2q-53 104 -162 104q-53 0 -91 -14 t-63.5 -50t-37.5 -94.5t-12 -144.5z" />
<glyph unicode="r" horiz-adv-x="428" d="M82 0v815h98v-82q84 94 199 96v-114q-78 0 -129 -35t-51 -98v-582h-117z" />
<glyph unicode="s" horiz-adv-x="583" d="M63 0v117q16 -10 51.5 -12.5t118.5 -6.5q92 0 128 30t36 69q0 33 -30.5 68.5t-108.5 94.5q-86 66 -136 121.5t-50 145.5q2 68 29.5 107.5t68.5 59t89 25.5t89 6q45 0 69.5 -3t45.5 -7v-115q-61 20 -127 21q-53 0 -98 -19.5t-45 -76.5q0 -27 38.5 -72t89 -93t96.5 -90 t60 -61q18 -29 28.5 -59.5t10.5 -69.5q0 -86 -72.5 -140t-226.5 -54q-49 0 -88 3t-66 11z" />
<glyph unicode="t" horiz-adv-x="454" d="M45 733v82h86v246l117 29v-275h143v-82h-143v-461q0 -51 11 -82.5t29.5 -50t41 -24.5t45.5 -6q12 0 23.5 1t21.5 3v-111q-14 -8 -72 -8q-31 0 -68.5 11t-70.5 40t-55.5 81t-22.5 134v473h-86z" />
<glyph unicode="u" horiz-adv-x="778" d="M78 262v553h121v-534q0 -51 16 -84t43 -52.5t59.5 -26.5t67.5 -7q31 0 64.5 7t60.5 26.5t44 52t17 82.5v536h115v-815h-115v74q-53 -84 -196 -84q-147 0 -222 73.5t-75 198.5z" />
<glyph unicode="v" horiz-adv-x="630" d="M27 815h131l125 -518l39 -191l38 191l125 518h131l-217 -815h-155z" />
<glyph unicode="w" horiz-adv-x="1034" d="M27 815h125l98 -438l43 -219l49 211l125 446h127l113 -446l45 -211l43 219l102 438h113l-203 -815h-105l-118 449l-54 235l-57 -231l-133 -453h-104z" />
<glyph unicode="x" horiz-adv-x="638" d="M37 0l215 410l-215 405h125l114 -254l46 -110l43 110l118 254h115l-213 -405l213 -410h-125l-117 264l-39 105l-43 -105l-122 -264h-115z" />
<glyph unicode="y" horiz-adv-x="651" d="M29 815h133l168 -754l172 754h116l-317 -1190h-96l100 375h-51z" />
<glyph unicode="z" horiz-adv-x="634" d="M61 0v119l355 528l43 47h-381v121h485v-121l-352 -530l-43 -45l100 4h301v-123h-508z" />
<glyph unicode="{" horiz-adv-x="393" d="M27 367v125q57 4 97 63t40 201v153q0 254 180 254h45v-63h-22q-66 0 -94.5 -18.5t-38 -62.5t-6.5 -117t3 -181q0 -178 -153 -283v-22q76 -47 114.5 -125t38.5 -197q0 -125 2.5 -192.5t15.5 -98t46 -36t94 -5.5v-69h-45q-180 0 -180 258v147q0 145 -40 204.5t-97 64.5z " />
<glyph unicode="|" horiz-adv-x="126" d="M35 -315v1486h59v-1486h-59z" />
<glyph unicode="}" horiz-adv-x="391" d="M39 -242q76 0 98.5 10.5t30.5 32.5q8 18 14 35t9.5 36t4.5 47t1 69v147q0 193 155 281v24q-156 94 -155 322v137q0 66 -9.5 104.5t-27 59t-44 27t-61.5 6.5h-16v67h47q178 0 178 -258v-147q0 -145 39 -202.5t98 -61.5v-127q-59 -4 -98 -64.5t-39 -202.5v-153 q0 -254 -178 -254h-47v65z" />
<glyph unicode="~" horiz-adv-x="2895" d="M127 414v186h2v96h137v58h-37v180h37v63h-37v76h899v-94q-14 27 -49 27q-94 0 -94 -158q0 -156 98 -156q31 0 64 39v-35h49v377h766v-53h70v53h737v-659h-2642zM129 754v180h39v-180h-39zM129 997v76h39v-76h-39zM289 823q0 -131 94 -131q29 0 51 17q0 -47 -57 -47h-31 v-62h43q113 12 113 145v252h-68v-186q0 -53 -41 -53q-39 0 -39 53v186h-65v-174zM524 600h68v115q14 -25 49 -25q94 0 94 156t-98 155q-29 0 -64 -40v36h-49v-397zM586 793v102q12 31 43 31q43 0 43 -78q0 -88 -45 -88q-29 0 -41 33zM750 844q0 -156 110 -156q113 0 113 156 q0 160 -113 160q-111 0 -110 -160zM817 844q0 84 43 84q45 0 45 -84q0 -82 -45 -82q-43 0 -43 82zM1049 846q0 88 45 88q27 0 39 -33v-104q-12 -29 -41 -29q-43 0 -43 78zM1214 774q2 -86 93 -86q45 0 70.5 26.5t25.5 82.5h-31q-6 -39 -51 -39q-41 0 -41 28q0 37 41 37h20 v37h-20q-41 0 -41 35q0 33 41 33q35 0 51 -41h31v110h-31v-47q-23 53 -67 54q-88 0 -88 -89q0 -55 45 -73q-47 -18 -48 -68zM1425 696h91v58h-29v133q0 41 29 41q12 0 24 -13l23 68q-16 14 -35 16q-43 0 -64 -49v47h-39v-301zM1544 696h144v58h-39v125q0 47 39 47 q31 0 30 -47v-183h105v58h-39v125q0 45 39 45q31 0 30 -45v-183h68v193q0 111 -96 110q-49 0 -64 -49q-18 49 -57 49q-35 0 -55 -49v47h-66v-243h-39v-58zM1931 934h31v-238h70v301h-101v-63zM2048 844q0 -154 104 -154q74 0 93 119h-33q-6 -47 -51 -47q-47 0 -47 82 q0 84 47 84t51 -56h33v121h-33v-43q-25 53 -62 54q-102 0 -102 -160z" />
<glyph unicode="&#xa1;" horiz-adv-x="290" d="M70 741q0 33 23.5 54.5t53.5 21.5q31 0 56.5 -21.5t25.5 -54.5t-25.5 -54t-56.5 -21t-54 21.5t-23 53.5zM94 -66l35 539h39l49 -536v-195h-123v192z" />
<glyph unicode="&#xa2;" horiz-adv-x="532" d="M45 575q0 109 15.5 184t44 122t70.5 71.5t95 34.5v199h64v-193h37q33 0 63 -6v-129q-27 14 -78 14h-22v-591h22q16 0 36 3t42 7v-129q-35 -6 -74 -6h-26v-187h-64v193q-53 8 -95 31.5t-70.5 71.5t-44 124t-15.5 186zM166 569q0 -76 7 -127t20.5 -83.5t33 -49t43.5 -22.5 v577q-25 -8 -44 -25.5t-32.5 -51t-20.5 -87t-7 -131.5z" />
<glyph unicode="&#xa3;" horiz-adv-x="753" d="M59 0v125q119 14 131 266v168h-63v80h63v102q0 193 76 256h2q82 74 191 74q53 0 103 -6t89 -23v-104q-33 20 -139 23h-14q-88 0 -139.5 -54.5t-51.5 -126.5v-141h185v-80h-185v-217q0 -115 -86 -219h453v-123h-615z" />
<glyph unicode="&#xa5;" horiz-adv-x="845" d="M57 1067h140l223 -604l219 604h141l-299 -690h158v-39h-152v-186h152v-37h-152v-115h-135v115h-168v37h168v186h-168v39h170z" />
<glyph unicode="&#xa7;" horiz-adv-x="651" d="M57 -2v90q55 -12 136 -12q92 0 147 23.5t55 99.5q0 84 -157 192q-164 109 -164 230q0 74 45 122t127 70q-37 41 -52.5 83t-15.5 77q0 57 31 94t77 57.5t101 27.5t107 7h36h17q12 0 16 -2v-92q-20 0 -48 2t-56 2q-31 0 -59.5 -3t-52 -13.5t-38 -31t-14.5 -54.5 q0 -31 32.5 -72t77 -81t87.5 -76t63 -56q55 -55 55 -145q0 -78 -48 -124t-120 -55q35 -35 52.5 -71.5t17.5 -83.5q0 -41 -15.5 -80t-49 -69.5t-85 -49t-122.5 -18.5q-113 0 -183 12zM188 627q0 -41 40 -90.5t126 -104.5q145 12 146 109q0 53 -51.5 99t-137.5 101 q-123 -37 -123 -114z" />
<glyph unicode="&#xa8;" horiz-adv-x="659" d="M84 1221q0 31 24.5 52t55.5 21q29 0 51.5 -21.5t22.5 -51.5q0 -31 -22.5 -51.5t-51.5 -20.5q-31 0 -55.5 20.5t-24.5 51.5zM424 1221q0 31 20.5 52t51.5 21t54 -21.5t23 -51.5q0 -31 -23.5 -51.5t-53.5 -20.5q-31 0 -51.5 20.5t-20.5 51.5z" />
<glyph unicode="&#xa9;" horiz-adv-x="1007" d="M59 537q0 174 20.5 279.5t71 162.5t136.5 75.5t219 18.5q281 0 358 -92v-2q86 -98 86 -444q0 -174 -17.5 -281t-64.5 -165t-134 -77.5t-224 -19.5q-133 0 -220 19.5t-138.5 77.5t-72 164.5t-20.5 283.5zM109 535q0 -137 11 -230.5t52 -151t120 -82t214 -24.5t213 21.5 t118 77t51 148.5t11 238t-10 240.5t-49 151t-118 78t-216 22.5q-133 0 -212 -21.5t-120 -76t-53 -149.5t-12 -242zM344 535q0 82 16.5 132t41 76.5t54 34.5t56.5 8q70 0 86 -8v-80q-6 2 -24.5 5.5t-47.5 3.5q-23 0 -40 -4.5t-29.5 -22.5t-18.5 -55t-6 -103t6 -101.5 t18.5 -53t30 -20.5t39.5 -3q55 0 72 10v-84q-29 -6 -94 -6q-35 0 -63.5 13.5t-50 44t-34 83t-12.5 130.5z" />
<glyph unicode="&#xab;" horiz-adv-x="499" d="M37 518v84l233 158v-78l-194 -117l194 -125v-71zM244 518v84l229 158v-78l-190 -117l190 -125v-71z" />
<glyph unicode="&#xad;" horiz-adv-x="372" d="M68 541v80h227v-80h-227z" />
<glyph unicode="&#xae;" horiz-adv-x="692" d="M37 713q0 121 17.5 194.5t54 113.5t96 53t143.5 13q186 0 246 -65l6 -8v2q59 -66 59 -303q0 -121 -14 -196t-49 -115t-94.5 -53t-151.5 -13q-86 0 -146.5 14.5t-97 55t-53 114.5t-16.5 193zM90 756q0 -70 3 -119t7 -82v-2q8 -35 21.5 -64.5t40 -51t70.5 -33t116 -11.5 q170 0 219 78h2q16 33 26.5 93.5t10.5 146.5q0 92 -6 153.5t-32.5 100.5t-78 55t-141.5 16q-86 0 -137 -16t-78 -51t-35 -87.5t-8 -125.5zM236 494v434h120q53 0 76 -30t23 -89t-23.5 -81.5t-54.5 -29.5q12 -10 21.5 -40.5t17.5 -64.5t16 -62.5t21 -36.5h-56q-8 6 -14 33.5 t-14.5 61.5t-19.5 63.5t-30 39.5h-32v-198h-51zM287 743h65q57 0 58 66q0 68 -58 68h-65v-134z" />
<glyph unicode="&#xaf;" horiz-adv-x="505" d="M57 1104v115h389v-115h-389z" />
<glyph unicode="&#xb0;" horiz-adv-x="487" d="M43 868q0 43 13.5 84t39 74t62.5 53.5t84 20.5q51 0 88 -18.5t61.5 -49.5t36.5 -70.5t12 -82.5t-12 -85t-37.5 -76t-62.5 -55.5t-86 -23.5q-47 0 -84 20.5t-62.5 53t-39 73.5t-13.5 82zM135 868q0 -61 24.5 -110t82.5 -49q57 0 86.5 49t29.5 110t-29.5 111.5t-86.5 50.5 t-82 -50t-25 -112z" />
<glyph unicode="&#xb4;" horiz-adv-x="299" d="M59 1137l86 157h99l-121 -157h-64z" />
<glyph unicode="&#xb5;" horiz-adv-x="778" d="M78 -375v1190h121v-534q0 -100 48 -135t134 -35t138 34.5t52 133.5v536h115v-727h92v-88h-186v55q-90 -66 -205 -65q-113 0 -188 55v-420h-121z" />
<glyph unicode="&#xb6;" horiz-adv-x="606" d="M49 848v219h506v-1067h-61v848h-218v-848h-61v848h-166z" />
<glyph unicode="&#xb7;" horiz-adv-x="239" d="M41 537q0 33 21.5 54t62.5 21q33 0 54.5 -21.5t21.5 -53.5q0 -33 -21.5 -54.5t-54.5 -21.5q-41 0 -62.5 21.5t-21.5 54.5z" />
<glyph unicode="&#xb8;" horiz-adv-x="342" d="M90 -238q10 -2 20.5 -3t20.5 -1q49 0 82 20.5t33 59.5q0 37 -23.5 64.5t-72.5 27.5h-15q-12 0 -14 -2v95h16v-58q8 0 14.5 1t12.5 1q68 0 92.5 -39t24.5 -82q0 -72 -41 -101.5t-99 -29.5q-27 0 -51 6v41z" />
<glyph unicode="&#xbb;" horiz-adv-x="495" d="M25 369v73l204 121l-204 125v72l233 -152v-84zM236 369v73l200 121l-200 125v72l229 -152v-84z" />
<glyph unicode="&#xbc;" horiz-adv-x="1105" d="M41 999v70h123v-614h-70v544h-53zM84 0l758 1067h65l-757 -1067h-66zM676 182v88l223 365h94v-391h62v-62h-62v-184h-73v184h-244zM735 244h185v311z" />
<glyph unicode="&#xbd;" horiz-adv-x="1064" d="M41 997v72h127v-623h-72v551h-55zM70 0l757 1067h66l-758 -1067h-65zM698 0v41q0 49 9.5 90t29 78t53 70.5t82.5 70.5q61 61 62 125q0 49 -34 63.5t-75 14.5q-25 0 -48 -5t-42 -13v77q16 4 36 8.5t48 4.5q33 0 68 -4.5t62.5 -19.5t45 -47t17.5 -87q0 -47 -25.5 -87 t-58.5 -74t-65 -58.5t-44 -38.5q-20 -23 -27.5 -57.5t-9.5 -79.5h244v-72h-328z" />
<glyph unicode="&#xbe;" horiz-adv-x="1118" d="M61 459v69q23 -4 37.5 -6t38.5 -2q18 0 42 6t43.5 19.5t32.5 36t13 57.5q0 66 -40 86t-105 20v70q82 0 111.5 29.5t29.5 77.5q0 96 -135 96q-53 0 -68 -8v63q20 4 41 8t48 4q23 0 55.5 -3t62 -20.5t50 -53t20.5 -101.5q0 -84 -84 -125q90 -41 90 -133q0 -59 -16.5 -98 t-42 -61.5t-55 -30.5t-56.5 -8h-55q-43 0 -58 8zM100 0l760 1067h64l-758 -1067h-66zM713 176v86l215 350h90v-376h61v-60h-61v-178h-70v178h-235zM770 236h178v299z" />
<glyph unicode="&#xbf;" horiz-adv-x="532" d="M66 -25q0 74 23.5 126.5t76.5 105.5q47 39 71.5 74.5t36 69.5t12.5 69t1 72h123q0 -211 -107 -312q-80 -74 -106.5 -121t-26.5 -92q0 -63 42 -99t140 -36q29 0 60.5 7t70.5 22v-107q-78 -25 -149 -24q-135 0 -201.5 64.5t-66.5 180.5zM272 741q0 33 21.5 54.5t56.5 21.5 q33 0 54.5 -21.5t21.5 -54.5t-21.5 -54t-54.5 -21q-35 0 -56.5 21.5t-21.5 53.5z" />
<glyph unicode="&#xc0;" horiz-adv-x="811" d="M27 0l278 1067h195l284 -1067h-129l-53 217h-397l-47 -217h-131zM229 1288h102l80 -158h-49zM236 328h344l-129 506l-43 194l-43 -197z" />
<glyph unicode="&#xc1;" horiz-adv-x="811" d="M27 0l278 1067h195l284 -1067h-129l-53 217h-397l-47 -217h-131zM236 328h344l-129 506l-43 194l-43 -197zM378 1137l86 157h99l-121 -157h-64z" />
<glyph unicode="&#xc2;" horiz-adv-x="811" d="M27 0l278 1067h195l284 -1067h-129l-53 217h-397l-47 -217h-131zM228 1133l143 155h70l143 -155h-66l-112 127l-109 -127h-69zM236 328h344l-129 506l-43 194l-43 -197z" />
<glyph unicode="&#xc3;" horiz-adv-x="811" d="M27 0l278 1067h195l284 -1067h-129l-53 217h-397l-47 -217h-131zM186 1135v34q0 57 27.5 89t87.5 32q18 0 47 -11t60.5 -23.5t63 -23.5t56.5 -11q61 0 62 96h47q0 -86 -31 -126t-82 -40q-23 0 -49.5 10t-56 23.5t-60.5 24t-59 10.5h-21q-20 -2 -32.5 -20.5t-16.5 -63.5 h-43zM236 328h344l-129 506l-43 194l-43 -197z" />
<glyph unicode="&#xc4;" horiz-adv-x="811" d="M27 0l278 1067h195l284 -1067h-129l-53 217h-397l-47 -217h-131zM156 1221q0 31 24.5 52t55.5 21q29 0 51.5 -21.5t22.5 -51.5q0 -31 -22.5 -51.5t-51.5 -20.5q-31 0 -55.5 20.5t-24.5 51.5zM236 328h344l-129 506l-43 194l-43 -197zM496 1221q0 31 20.5 52t51.5 21 t54 -21.5t23 -51.5q0 -31 -23.5 -51.5t-53.5 -20.5q-31 0 -51.5 20.5t-20.5 51.5z" />
<glyph unicode="&#xc5;" horiz-adv-x="811" d="M27 0l278 1067h195l284 -1067h-129l-53 217h-397l-47 -217h-131zM236 328h344l-129 506l-43 194l-43 -197zM291 1178q0 51 35 86.5t80 35.5t78 -35.5t33 -86.5t-33 -86t-78 -35t-80 35t-35 86zM322 1178q0 -37 24.5 -62.5t59.5 -25.5t59.5 25.5t24.5 62.5t-24.5 63.5 t-59.5 26.5t-59.5 -26.5t-24.5 -63.5z" />
<glyph unicode="&#xc6;" horiz-adv-x="1028" d="M20 -20l359 1067h579v-123h-258v-467h189v-123h-189v-232h258v-122h-380v354h-304l-120 -354h-134zM315 457h263v469h-127z" />
<glyph unicode="&#xc7;" horiz-adv-x="667" d="M59 537q0 371 99 448q94 88 241 88q150 0 187 -12v-121q-31 4 -69 7t-73 3h-30q-55 0 -98.5 -8t-73 -48t-46 -124t-16.5 -235q0 -154 17.5 -239t49.5 -125t78 -47t105 -7q51 0 91 2t65 8v-123q-41 -12 -191 -12q-145 0 -239 92q-96 90 -97 453zM340 -238q10 -2 20.5 -3 t20.5 -1q49 0 82 20.5t33 59.5q0 37 -23.5 64.5t-72.5 27.5h-15q-12 0 -14 -2v95h16v-58q8 0 14.5 1t12.5 1q68 0 92.5 -39t24.5 -82q0 -72 -41 -101.5t-99 -29.5q-27 0 -51 6v41z" />
<glyph unicode="&#xc8;" horiz-adv-x="653" d="M82 0v1067h514v-123h-391v-332h241v-123h-241v-366h391v-123h-514zM160 1288h102l80 -158h-49z" />
<glyph unicode="&#xc9;" horiz-adv-x="653" d="M82 0v1067h514v-123h-391v-332h241v-123h-241v-366h391v-123h-514zM278 1137l86 157h99l-121 -157h-64z" />
<glyph unicode="&#xca;" horiz-adv-x="653" d="M82 0v1067h514v-123h-391v-332h241v-123h-241v-366h391v-123h-514zM146 1133l143 155h70l143 -155h-66l-112 127l-109 -127h-69z" />
<glyph unicode="&#xcb;" horiz-adv-x="653" d="M82 0v1067h514v-123h-391v-332h241v-123h-241v-366h391v-123h-514zM84 1221q0 31 24.5 52t55.5 21q29 0 51.5 -21.5t22.5 -51.5q0 -31 -22.5 -51.5t-51.5 -20.5q-31 0 -55.5 20.5t-24.5 51.5zM424 1221q0 31 20.5 52t51.5 21t54 -21.5t23 -51.5q0 -31 -23.5 -51.5 t-53.5 -20.5q-31 0 -51.5 20.5t-20.5 51.5z" />
<glyph unicode="&#xcc;" horiz-adv-x="294" d="M-22 1288h102l80 -158h-49zM82 0v1067h123v-1067h-123z" />
<glyph unicode="&#xcd;" horiz-adv-x="294" d="M82 0v1067h123v-1067h-123zM133 1137l86 157h99l-121 -157h-64z" />
<glyph unicode="&#xce;" horiz-adv-x="294" d="M-28 1133l143 155h70l143 -155h-66l-112 127l-109 -127h-69zM82 0v1067h123v-1067h-123z" />
<glyph unicode="&#xcf;" horiz-adv-x="294" d="M-94 1221q0 31 24.5 52t55.5 21q29 0 51.5 -21.5t22.5 -51.5q0 -31 -22.5 -51.5t-51.5 -20.5q-31 0 -55.5 20.5t-24.5 51.5zM82 0v1067h123v-1067h-123zM246 1221q0 31 20.5 52t51.5 21t54 -21.5t23 -51.5q0 -31 -23.5 -51.5t-53.5 -20.5q-31 0 -51.5 20.5t-20.5 51.5z " />
<glyph unicode="&#xd0;" horiz-adv-x="858" d="M-98 497v86h352v-86h-352zM82 0v1067h319q193 0 283 -86h2q92 -78 92 -446q0 -184 -21.5 -291t-68.5 -161t-119.5 -68.5t-175.5 -14.5h-311zM205 123h182q82 0 135 10t83 51t41 123t11 225q0 150 -13 234t-45 124t-84 48t-128 8h-182v-823z" />
<glyph unicode="&#xd1;" horiz-adv-x="843" d="M82 0v1067h162l327 -727l93 -199l-11 228v698h107v-1067h-148l-329 725l-97 211l4 -248v-688h-108zM203 1135v34q0 57 27.5 89t87.5 32q18 0 47 -11t60.5 -23.5t63 -23.5t56.5 -11q61 0 62 96h47q0 -86 -31 -126t-82 -40q-23 0 -49.5 10t-56 23.5t-60.5 24t-59 10.5h-21 q-20 -2 -32.5 -20.5t-16.5 -63.5h-43z" />
<glyph unicode="&#xd2;" horiz-adv-x="927" d="M72 537q0 369 98 452q102 84 293 84h16q195 0 285 -84t90 -454q0 -190 -22.5 -300t-69.5 -163.5t-120 -66.5t-173 -13h-12q-90 0 -161 13t-121 68.5t-76.5 164t-26.5 299.5zM193 530q0 -309 69 -360q72 -53 201 -53q154 0 213 53t59 362t-59 365q-59 55 -213 55 q-143 0 -207 -57q-63 -55 -63 -365zM295 1288h102l80 -158h-49z" />
<glyph unicode="&#xd3;" horiz-adv-x="927" d="M72 537q0 369 98 452q102 84 293 84h16q195 0 285 -84t90 -454q0 -190 -22.5 -300t-69.5 -163.5t-120 -66.5t-173 -13h-12q-90 0 -161 13t-121 68.5t-76.5 164t-26.5 299.5zM193 530q0 -309 69 -360q72 -53 201 -53q154 0 213 53t59 362t-59 365q-59 55 -213 55 q-143 0 -207 -57q-63 -55 -63 -365zM440 1137l86 157h99l-121 -157h-64z" />
<glyph unicode="&#xd4;" horiz-adv-x="927" d="M72 537q0 369 98 452q102 84 293 84h16q195 0 285 -84t90 -454q0 -190 -22.5 -300t-69.5 -163.5t-120 -66.5t-173 -13h-12q-90 0 -161 13t-121 68.5t-76.5 164t-26.5 299.5zM193 530q0 -309 69 -360q72 -53 201 -53q154 0 213 53t59 362t-59 365q-59 55 -213 55 q-143 0 -207 -57q-63 -55 -63 -365zM287 1133l143 155h70l143 -155h-66l-112 127l-109 -127h-69z" />
<glyph unicode="&#xd5;" horiz-adv-x="927" d="M72 537q0 369 98 452q102 84 293 84h16q195 0 285 -84t90 -454q0 -190 -22.5 -300t-69.5 -163.5t-120 -66.5t-173 -13h-12q-90 0 -161 13t-121 68.5t-76.5 164t-26.5 299.5zM193 530q0 -309 69 -360q72 -53 201 -53q154 0 213 53t59 362t-59 365q-59 55 -213 55 q-143 0 -207 -57q-63 -55 -63 -365zM244 1135v34q0 57 27.5 89t87.5 32q18 0 47 -11t60.5 -23.5t63 -23.5t56.5 -11q61 0 62 96h47q0 -86 -31 -126t-82 -40q-23 0 -49.5 10t-56 23.5t-60.5 24t-59 10.5h-21q-20 -2 -32.5 -20.5t-16.5 -63.5h-43z" />
<glyph unicode="&#xd6;" horiz-adv-x="927" d="M72 537q0 369 98 452q102 84 293 84h16q195 0 285 -84t90 -454q0 -190 -22.5 -300t-69.5 -163.5t-120 -66.5t-173 -13h-12q-90 0 -161 13t-121 68.5t-76.5 164t-26.5 299.5zM193 530q0 -309 69 -360q72 -53 201 -53q154 0 213 53t59 362t-59 365q-59 55 -213 55 q-143 0 -207 -57q-63 -55 -63 -365zM236 1221q0 31 24.5 52t55.5 21q29 0 51.5 -21.5t22.5 -51.5q0 -31 -22.5 -51.5t-51.5 -20.5q-31 0 -55.5 20.5t-24.5 51.5zM576 1221q0 31 20.5 52t51.5 21t54 -21.5t23 -51.5q0 -31 -23.5 -51.5t-53.5 -20.5q-31 0 -51.5 20.5 t-20.5 51.5z" />
<glyph unicode="&#xd8;" horiz-adv-x="927" d="M72 537q0 369 98 452q102 84 293 84h16q195 0 285 -84t90 -454q0 -190 -22.5 -300t-69.5 -163.5t-120 -66.5t-173 -13h-12q-90 0 -161 13t-121 68.5t-76.5 164t-26.5 299.5zM193 530q0 -309 69 -360q72 -53 201 -53q154 0 213 53t59 362t-59 365q-59 55 -213 55 q-143 0 -207 -57q-63 -55 -63 -365zM285 -75l459 1248h71l-447 -1248h-83z" />
<glyph unicode="&#xd9;" horiz-adv-x="872" d="M76 371v696h125v-737q0 -61 17.5 -102.5t49 -66t75.5 -33.5t99 -9q119 0 173.5 43t54.5 168v737h125v-694q0 -106 -21.5 -178t-64.5 -116t-110 -63.5t-157 -19.5q-178 0 -272 83t-94 292zM252 1288h102l80 -158h-49z" />
<glyph unicode="&#xda;" horiz-adv-x="872" d="M76 371v696h125v-737q0 -61 17.5 -102.5t49 -66t75.5 -33.5t99 -9q119 0 173.5 43t54.5 168v737h125v-694q0 -106 -21.5 -178t-64.5 -116t-110 -63.5t-157 -19.5q-178 0 -272 83t-94 292zM391 1137l86 157h99l-121 -157h-64z" />
<glyph unicode="&#xdb;" horiz-adv-x="872" d="M76 371v696h125v-737q0 -61 17.5 -102.5t49 -66t75.5 -33.5t99 -9q119 0 173.5 43t54.5 168v737h125v-694q0 -106 -21.5 -178t-64.5 -116t-110 -63.5t-157 -19.5q-178 0 -272 83t-94 292zM258 1133l143 155h70l143 -155h-66l-112 127l-109 -127h-69z" />
<glyph unicode="&#xdc;" horiz-adv-x="872" d="M76 371v696h125v-737q0 -61 17.5 -102.5t49 -66t75.5 -33.5t99 -9q119 0 173.5 43t54.5 168v737h125v-694q0 -106 -21.5 -178t-64.5 -116t-110 -63.5t-157 -19.5q-178 0 -272 83t-94 292zM182 1221q0 31 24.5 52t55.5 21q29 0 51.5 -21.5t22.5 -51.5q0 -31 -22.5 -51.5 t-51.5 -20.5q-31 0 -55.5 20.5t-24.5 51.5zM522 1221q0 31 20.5 52t51.5 21t54 -21.5t23 -51.5q0 -31 -23.5 -51.5t-53.5 -20.5q-31 0 -51.5 20.5t-20.5 51.5z" />
<glyph unicode="&#xdd;" horiz-adv-x="782" d="M27 1067h143l172 -455l47 -149l47 149l172 455h146l-295 -670v-397h-137v397zM340 1137l86 157h99l-121 -157h-64z" />
<glyph unicode="&#xde;" horiz-adv-x="774" d="M82 0v1067h123v-231h217q86 0 144.5 -17.5t94 -56.5t51 -98.5t15.5 -145.5q0 -170 -72.5 -240.5t-248.5 -70.5h-201v-207h-123zM205 328h231q190 0 191 192q0 193 -191 193h-231v-385z" />
<glyph unicode="&#xdf;" horiz-adv-x="940" d="M82 0v752q0 111 30.5 181.5t86 111t131.5 56t168 15.5q180 0 267 -70.5t87 -224.5q0 -117 -34 -176t-116 -78q31 -4 64 -19.5t58.5 -46t42 -77.5t16.5 -115q0 -96 -28 -157.5t-75 -96.5t-108.5 -49t-130.5 -14q-68 0 -138 12v113q29 -4 59 -6t58 -2q49 0 95.5 8t83 30.5 t59 64.5t22.5 110q0 92 -73.5 136t-178.5 44h-122v123h110q109 0 168 46t59 167q0 66 -27.5 100.5t-68.5 51t-89 18.5t-89 2q-55 0 -103.5 -11.5t-84 -39t-56 -73.5t-20.5 -116v-770h-123z" />
<glyph unicode="&#xe0;" horiz-adv-x="737" d="M41 252q0 147 73.5 218t190.5 71t227 -31v59q0 63 -63 101.5t-180 38.5q-78 0 -117 -13v125q16 8 166 8q141 0 228 -73.5t87 -204.5v-551h-73l-56 61q-88 -70 -215 -69q-123 0 -195.5 58.5t-72.5 201.5zM162 256q0 -47 16.5 -76.5t42 -45t57 -20.5t62.5 -5q33 0 67.5 7 t61.5 20.5t44 31.5t17 41v203q-25 6 -42 10t-37.5 6t-47 3t-69.5 1q-172 0 -172 -176zM217 1048h102l80 -158h-49z" />
<glyph unicode="&#xe1;" horiz-adv-x="737" d="M41 252q0 147 73.5 218t190.5 71t227 -31v59q0 63 -63 101.5t-180 38.5q-78 0 -117 -13v125q16 8 166 8q141 0 228 -73.5t87 -204.5v-551h-73l-56 61q-88 -70 -215 -69q-123 0 -195.5 58.5t-72.5 201.5zM162 256q0 -47 16.5 -76.5t42 -45t57 -20.5t62.5 -5q33 0 67.5 7 t61.5 20.5t44 31.5t17 41v203q-25 6 -42 10t-37.5 6t-47 3t-69.5 1q-172 0 -172 -176zM288 897l86 157h99l-121 -157h-64z" />
<glyph unicode="&#xe2;" horiz-adv-x="737" d="M41 252q0 147 73.5 218t190.5 71t227 -31v59q0 63 -63 101.5t-180 38.5q-78 0 -117 -13v125q16 8 166 8q141 0 228 -73.5t87 -204.5v-551h-73l-56 61q-88 -70 -215 -69q-123 0 -195.5 58.5t-72.5 201.5zM162 256q0 -47 16.5 -76.5t42 -45t57 -20.5t62.5 -5q33 0 67.5 7 t61.5 20.5t44 31.5t17 41v203q-25 6 -42 10t-37.5 6t-47 3t-69.5 1q-172 0 -172 -176zM181 893l143 155h70l143 -155h-66l-112 127l-109 -127h-69z" />
<glyph unicode="&#xe3;" horiz-adv-x="737" d="M41 252q0 147 73.5 218t190.5 71t227 -31v59q0 63 -63 101.5t-180 38.5q-78 0 -117 -13v125q16 8 166 8q141 0 228 -73.5t87 -204.5v-551h-73l-56 61q-88 -70 -215 -69q-123 0 -195.5 58.5t-72.5 201.5zM162 256q0 -47 16.5 -76.5t42 -45t57 -20.5t62.5 -5q33 0 67.5 7 t61.5 20.5t44 31.5t17 41v203q-25 6 -42 10t-37.5 6t-47 3t-69.5 1q-172 0 -172 -176zM166 895v34q0 57 27.5 89t87.5 32q18 0 47 -11t60.5 -23.5t63 -23.5t56.5 -11q61 0 62 96h47q0 -86 -31 -126t-82 -40q-23 0 -49.5 10t-56 23.5t-60.5 24t-59 10.5h-21 q-20 -2 -32.5 -20.5t-16.5 -63.5h-43z" />
<glyph unicode="&#xe4;" horiz-adv-x="737" d="M41 252q0 147 73.5 218t190.5 71t227 -31v59q0 63 -63 101.5t-180 38.5q-78 0 -117 -13v125q16 8 166 8q141 0 228 -73.5t87 -204.5v-551h-73l-56 61q-88 -70 -215 -69q-123 0 -195.5 58.5t-72.5 201.5zM129 981q0 31 24.5 52t55.5 21q29 0 51.5 -21.5t22.5 -51.5 q0 -31 -22.5 -51.5t-51.5 -20.5q-31 0 -55.5 20.5t-24.5 51.5zM162 256q0 -47 16.5 -76.5t42 -45t57 -20.5t62.5 -5q33 0 67.5 7t61.5 20.5t44 31.5t17 41v203q-25 6 -42 10t-37.5 6t-47 3t-69.5 1q-172 0 -172 -176zM469 981q0 31 20.5 52t51.5 21t54 -21.5t23 -51.5 q0 -31 -23.5 -51.5t-53.5 -20.5q-31 0 -51.5 20.5t-20.5 51.5z" />
<glyph unicode="&#xe5;" horiz-adv-x="737" d="M41 252q0 147 73.5 218t190.5 71t227 -31v59q0 63 -63 101.5t-180 38.5q-78 0 -117 -13v125q16 8 166 8q141 0 228 -73.5t87 -204.5v-551h-73l-56 61q-88 -70 -215 -69q-123 0 -195.5 58.5t-72.5 201.5zM162 256q0 -47 16.5 -76.5t42 -45t57 -20.5t62.5 -5q33 0 67.5 7 t61.5 20.5t44 31.5t17 41v203q-25 6 -42 10t-37.5 6t-47 3t-69.5 1q-172 0 -172 -176zM262 938q0 51 35 86.5t80 35.5t78 -35.5t33 -86.5t-33 -86t-78 -35t-80 35t-35 86zM293 938q0 -37 24.5 -62.5t59.5 -25.5t59.5 25.5t24.5 62.5t-24.5 63.5t-59.5 26.5t-59.5 -26.5 t-24.5 -63.5z" />
<glyph unicode="&#xe6;" horiz-adv-x="1212" d="M41 264q0 141 72.5 197.5t208.5 56.5q117 0 208 -33v80q0 49 -25.5 80t-64.5 47.5t-86 21.5t-92 5q-51 0 -90 -6v108q31 10 115 10q98 0 181 -25.5t134 -103.5q39 66 106.5 96.5t155.5 30.5q160 0 223.5 -83.5t63.5 -278.5v-121h-487q4 -59 13 -104t30.5 -75t60.5 -45.5 t100 -15.5q45 0 94.5 7.5t100.5 19.5v-125q-55 -20 -219 -20q-145 0 -242 121q-115 -117 -262 -117q-166 0 -232.5 68.5t-66.5 203.5zM162 256q0 -82 46 -112.5t132 -30.5q82 0 130 27.5t60 70.5v170q-37 14 -89 23.5t-113 9.5q-92 0 -129 -40t-37 -118zM662 436h370 q-4 68 -9 118t-22.5 85t-53.5 52.5t-99 17.5q-66 0 -101.5 -17.5t-54 -52.5t-23.5 -86t-7 -117z" />
<glyph unicode="&#xe7;" horiz-adv-x="532" d="M59 412q0 129 21.5 211t61.5 128t98.5 62t130.5 16h14q33 0 64 -6v-129q-27 15 -78 15q-45 0 -80 -7.5t-59.5 -37t-38 -91t-13.5 -167.5t13.5 -165t39 -86.5t60.5 -32.5t78 -5q16 0 35.5 3t42.5 7v-129q-35 -6 -74 -6h-13q-72 0 -127 17.5t-95 63.5t-60.5 128t-20.5 211z M254 -238q10 -2 20.5 -3t20.5 -1q49 0 82 20.5t33 59.5q0 37 -23.5 64.5t-72.5 27.5h-15q-12 0 -14 -2v95h16v-58q8 0 14.5 1t12.5 1q68 0 92.5 -39t24.5 -82q0 -72 -41 -101.5t-99 -29.5q-27 0 -51 6v41z" />
<glyph unicode="&#xe8;" d="M59 471q0 174 87 266t229 92q68 0 123 -20.5t94 -67.5t59.5 -121.5t20.5 -181.5v-92h-490q4 -133 61.5 -183t178.5 -50q76 0 160 22v-131q-35 -12 -160 -12h-37q-86 0 -147.5 22.5t-101.5 77.5t-58.5 147.5t-18.5 231.5zM180 436h375q-2 92 -15.5 146.5t-37 82t-56 36 t-73.5 8.5q-66 0 -103 -20.5t-56 -56.5t-25.5 -86t-8.5 -110zM193 1048h102l80 -158h-49z" />
<glyph unicode="&#xe9;" d="M59 471q0 174 87 266t229 92q68 0 123 -20.5t94 -67.5t59.5 -121.5t20.5 -181.5v-92h-490q4 -133 61.5 -183t178.5 -50q76 0 160 22v-131q-35 -12 -160 -12h-37q-86 0 -147.5 22.5t-101.5 77.5t-58.5 147.5t-18.5 231.5zM180 436h375q-2 92 -15.5 146.5t-37 82t-56 36 t-73.5 8.5q-66 0 -103 -20.5t-56 -56.5t-25.5 -86t-8.5 -110zM331 897l86 157h99l-121 -157h-64z" />
<glyph unicode="&#xea;" d="M59 471q0 174 87 266t229 92q68 0 123 -20.5t94 -67.5t59.5 -121.5t20.5 -181.5v-92h-490q4 -133 61.5 -183t178.5 -50q76 0 160 22v-131q-35 -12 -160 -12h-37q-86 0 -147.5 22.5t-101.5 77.5t-58.5 147.5t-18.5 231.5zM180 436h375q-2 92 -15.5 146.5t-37 82t-56 36 t-73.5 8.5q-66 0 -103 -20.5t-56 -56.5t-25.5 -86t-8.5 -110zM189 893l143 155h70l143 -155h-66l-112 127l-109 -127h-69z" />
<glyph unicode="&#xeb;" d="M59 471q0 174 87 266t229 92q68 0 123 -20.5t94 -67.5t59.5 -121.5t20.5 -181.5v-92h-490q4 -133 61.5 -183t178.5 -50q76 0 160 22v-131q-35 -12 -160 -12h-37q-86 0 -147.5 22.5t-101.5 77.5t-58.5 147.5t-18.5 231.5zM125 981q0 31 24.5 52t55.5 21q29 0 51.5 -21.5 t22.5 -51.5q0 -31 -22.5 -51.5t-51.5 -20.5q-31 0 -55.5 20.5t-24.5 51.5zM180 436h375q-2 92 -15.5 146.5t-37 82t-56 36t-73.5 8.5q-66 0 -103 -20.5t-56 -56.5t-25.5 -86t-8.5 -110zM465 981q0 31 20.5 52t51.5 21t54 -21.5t23 -51.5q0 -31 -23.5 -51.5t-53.5 -20.5 q-31 0 -51.5 20.5t-20.5 51.5z" />
<glyph unicode="&#xec;" horiz-adv-x="296" d="M-27 1044h103l80 -157h-50zM98 0v815h123v-815h-123z" />
<glyph unicode="&#xed;" horiz-adv-x="296" d="M98 0v815h123v-815h-123zM125 893l86 158h98l-121 -158h-63z" />
<glyph unicode="&#xee;" horiz-adv-x="296" d="M-35 889l144 155h69l144 -155h-66l-113 127l-108 -127h-70zM98 0v815h123v-815h-123z" />
<glyph unicode="&#xef;" horiz-adv-x="296" d="M-94 977q0 31 24.5 52.5t55.5 21.5q29 0 51 -21.5t22 -52.5t-22.5 -51.5t-50.5 -20.5q-31 0 -55.5 20.5t-24.5 51.5zM98 0v815h123v-815h-123zM246 977q0 31 20.5 52.5t50.5 21.5q31 0 54.5 -21.5t23.5 -52.5t-23.5 -51.5t-54.5 -20.5t-51 20.5t-20 51.5z" />
<glyph unicode="&#xf0;" horiz-adv-x="827" d="M68 348q0 80 13 140.5t47 100.5t94.5 59.5t154.5 19.5q205 0 262 -95v31q0 92 -13.5 150.5t-43.5 101.5l-127 -76l-35 51l119 70q-35 25 -77 39t-102 14q-37 0 -66.5 -3t-51.5 -7v117q25 12 131 12q76 0 147.5 -27.5t124.5 -80.5l127 75l37 -51l-123 -74 q47 -78 57.5 -152.5t10.5 -160.5q0 -74 2 -147.5t-3 -141t-21.5 -126t-55.5 -102.5t-104.5 -68.5t-168.5 -24.5q-186 0 -260.5 86t-74.5 270zM184 322q0 -70 17.5 -113t48.5 -65.5t70.5 -31t85.5 -8.5q57 0 100 9.5t71.5 35t43 69.5t16.5 116q-2 133 -54.5 178t-166.5 45 q-68 0 -112 -12.5t-70.5 -40t-38 -72.5t-11.5 -110z" />
<glyph unicode="&#xf1;" horiz-adv-x="778" d="M82 0v813h123v-55q35 37 94 53t158 16q47 0 90 -16t74.5 -48t50 -79t18.5 -106v-578h-117v539q0 100 -52 135t-132 35q-86 0 -137 -36t-51 -132v-541h-119zM170 895v34q0 57 27.5 89t87.5 32q18 0 47 -11t60.5 -23.5t63 -23.5t56.5 -11q61 0 62 96h47q0 -86 -31 -126 t-82 -40q-23 0 -49.5 10t-56 23.5t-60.5 24t-59 10.5h-21q-20 -2 -32.5 -20.5t-16.5 -63.5h-43z" />
<glyph unicode="&#xf2;" d="M59 412q0 129 21.5 211t61.5 128t98.5 62t130.5 16h14q68 0 121 -17t90 -63.5t56.5 -128t19.5 -210.5t-18.5 -211t-55.5 -128t-92 -62.5t-131 -16.5h-13q-72 0 -127 17.5t-95 63.5t-60.5 128t-20.5 211zM180 406q0 -106 13.5 -165t39 -86.5t60.5 -32.5t78 -5q37 0 70.5 7 t59 34.5t40 85t14.5 159.5t-12.5 163t-37 92.5t-58 41t-76.5 9.5q-45 0 -80 -7.5t-59.5 -37t-38 -91t-13.5 -167.5zM215 1048h102l80 -158h-49z" />
<glyph unicode="&#xf3;" d="M59 412q0 129 21.5 211t61.5 128t98.5 62t130.5 16h14q68 0 121 -17t90 -63.5t56.5 -128t19.5 -210.5t-18.5 -211t-55.5 -128t-92 -62.5t-131 -16.5h-13q-72 0 -127 17.5t-95 63.5t-60.5 128t-20.5 211zM180 406q0 -106 13.5 -165t39 -86.5t60.5 -32.5t78 -5q37 0 70.5 7 t59 34.5t40 85t14.5 159.5t-12.5 163t-37 92.5t-58 41t-76.5 9.5q-45 0 -80 -7.5t-59.5 -37t-38 -91t-13.5 -167.5zM342 897l86 157h99l-121 -157h-64z" />
<glyph unicode="&#xf4;" d="M59 412q0 129 21.5 211t61.5 128t98.5 62t130.5 16h14q68 0 121 -17t90 -63.5t56.5 -128t19.5 -210.5t-18.5 -211t-55.5 -128t-92 -62.5t-131 -16.5h-13q-72 0 -127 17.5t-95 63.5t-60.5 128t-20.5 211zM180 406q0 -106 13.5 -165t39 -86.5t60.5 -32.5t78 -5q37 0 70.5 7 t59 34.5t40 85t14.5 159.5t-12.5 163t-37 92.5t-58 41t-76.5 9.5q-45 0 -80 -7.5t-59.5 -37t-38 -91t-13.5 -167.5zM185 893l143 155h70l143 -155h-66l-112 127l-109 -127h-69z" />
<glyph unicode="&#xf5;" d="M59 412q0 129 21.5 211t61.5 128t98.5 62t130.5 16h14q68 0 121 -17t90 -63.5t56.5 -128t19.5 -210.5t-18.5 -211t-55.5 -128t-92 -62.5t-131 -16.5h-13q-72 0 -127 17.5t-95 63.5t-60.5 128t-20.5 211zM158 895v34q0 57 27.5 89t87.5 32q18 0 47 -11t60.5 -23.5 t63 -23.5t56.5 -11q61 0 62 96h47q0 -86 -31 -126t-82 -40q-23 0 -49.5 10t-56 23.5t-60.5 24t-59 10.5h-21q-20 -2 -32.5 -20.5t-16.5 -63.5h-43zM180 406q0 -106 13.5 -165t39 -86.5t60.5 -32.5t78 -5q37 0 70.5 7t59 34.5t40 85t14.5 159.5t-12.5 163t-37 92.5t-58 41 t-76.5 9.5q-45 0 -80 -7.5t-59.5 -37t-38 -91t-13.5 -167.5z" />
<glyph unicode="&#xf6;" d="M59 412q0 129 21.5 211t61.5 128t98.5 62t130.5 16h14q68 0 121 -17t90 -63.5t56.5 -128t19.5 -210.5t-18.5 -211t-55.5 -128t-92 -62.5t-131 -16.5h-13q-72 0 -127 17.5t-95 63.5t-60.5 128t-20.5 211zM131 981q0 31 24.5 52t55.5 21q29 0 51.5 -21.5t22.5 -51.5 q0 -31 -22.5 -51.5t-51.5 -20.5q-31 0 -55.5 20.5t-24.5 51.5zM180 406q0 -106 13.5 -165t39 -86.5t60.5 -32.5t78 -5q37 0 70.5 7t59 34.5t40 85t14.5 159.5t-12.5 163t-37 92.5t-58 41t-76.5 9.5q-45 0 -80 -7.5t-59.5 -37t-38 -91t-13.5 -167.5zM471 981q0 31 20.5 52 t51.5 21t54 -21.5t23 -51.5q0 -31 -23.5 -51.5t-53.5 -20.5q-31 0 -51.5 20.5t-20.5 51.5z" />
<glyph unicode="&#xf8;" d="M55 -29l552 850h86l-539 -850h-99zM59 412q0 129 21.5 211t61.5 128t98.5 62t130.5 16h14q68 0 121 -17t90 -63.5t56.5 -128t19.5 -210.5t-18.5 -211t-55.5 -128t-92 -62.5t-131 -16.5h-13q-72 0 -127 17.5t-95 63.5t-60.5 128t-20.5 211zM180 406q0 -106 13.5 -165 t39 -86.5t60.5 -32.5t78 -5q37 0 70.5 7t59 34.5t40 85t14.5 159.5t-12.5 163t-37 92.5t-58 41t-76.5 9.5q-45 0 -80 -7.5t-59.5 -37t-38 -91t-13.5 -167.5z" />
<glyph unicode="&#xf9;" horiz-adv-x="778" d="M78 262v553h121v-534q0 -51 16 -84t43 -52.5t59.5 -26.5t67.5 -7q31 0 64.5 7t60.5 26.5t44 52t17 82.5v536h115v-815h-115v74q-53 -84 -196 -84q-147 0 -222 73.5t-75 198.5zM211 1048h102l80 -158h-49z" />
<glyph unicode="&#xfa;" horiz-adv-x="778" d="M78 262v553h121v-534q0 -51 16 -84t43 -52.5t59.5 -26.5t67.5 -7q31 0 64.5 7t60.5 26.5t44 52t17 82.5v536h115v-815h-115v74q-53 -84 -196 -84q-147 0 -222 73.5t-75 198.5zM333 897l86 157h99l-121 -157h-64z" />
<glyph unicode="&#xfb;" horiz-adv-x="778" d="M78 262v553h121v-534q0 -51 16 -84t43 -52.5t59.5 -26.5t67.5 -7q31 0 64.5 7t60.5 26.5t44 52t17 82.5v536h115v-815h-115v74q-53 -84 -196 -84q-147 0 -222 73.5t-75 198.5zM199 893l143 155h70l143 -155h-66l-112 127l-109 -127h-69z" />
<glyph unicode="&#xfc;" horiz-adv-x="778" d="M78 262v553h121v-534q0 -51 16 -84t43 -52.5t59.5 -26.5t67.5 -7q31 0 64.5 7t60.5 26.5t44 52t17 82.5v536h115v-815h-115v74q-53 -84 -196 -84q-147 0 -222 73.5t-75 198.5zM133 981q0 31 24.5 52t55.5 21q29 0 51.5 -21.5t22.5 -51.5q0 -31 -22.5 -51.5t-51.5 -20.5 q-31 0 -55.5 20.5t-24.5 51.5zM473 981q0 31 20.5 52t51.5 21t54 -21.5t23 -51.5q0 -31 -23.5 -51.5t-53.5 -20.5q-31 0 -51.5 20.5t-20.5 51.5z" />
<glyph unicode="&#xfd;" horiz-adv-x="651" d="M29 815h133l168 -754l172 754h116l-317 -1190h-96l100 375h-51zM288 897l86 157h99l-121 -157h-64z" />
<glyph unicode="&#xfe;" horiz-adv-x="745" d="M76 -375v1454l123 29v-346q29 35 88 49t127 14q86 0 138 -32.5t79.5 -91t37 -136.5t9.5 -166q0 -86 -10.5 -161.5t-38 -132t-78.5 -88t-133 -31.5q-86 0 -132 15t-87 46v-422h-123zM195 240h2q29 -55 74.5 -89t105.5 -34q66 0 102.5 20.5t54 57t21.5 89t4 117.5 q0 63 -7 117.5t-27.5 94.5t-57.5 61.5t-96 21.5q-72 0 -110 -30.5t-66 -81.5v-344z" />
<glyph unicode="&#xff;" horiz-adv-x="651" d="M29 815h133l168 -754l172 754h116l-317 -1190h-96l100 375h-51zM88 981q0 31 24.5 52t55.5 21q29 0 51.5 -21.5t22.5 -51.5q0 -31 -22.5 -51.5t-51.5 -20.5q-31 0 -55.5 20.5t-24.5 51.5zM428 981q0 31 20.5 52t51.5 21t54 -21.5t23 -51.5q0 -31 -23.5 -51.5t-53.5 -20.5 q-31 0 -51.5 20.5t-20.5 51.5z" />
<glyph unicode="&#x152;" horiz-adv-x="1089" d="M39 530q0 176 28.5 283t75.5 165t106.5 76.5t123.5 18.5q143 0 233 -65v59h434v-123h-313v-332h164v-123h-164v-366h313v-123h-434v57q-80 -61 -231 -63h-8q-68 0 -127.5 18.5t-104.5 74.5t-70.5 161.5t-25.5 281.5zM160 535q0 -311 65 -365q66 -53 162 -53q90 0 150 53 q61 51 61 362q0 156 -15.5 242t-44 125t-68.5 46t-87 7q-96 0 -160 -57q-63 -57 -63 -360z" />
<glyph unicode="&#x153;" horiz-adv-x="1208" d="M49 412q0 129 21.5 211t61.5 128t98.5 62t130.5 16h14q68 0 121 -17t90 -63.5t56.5 -128t19.5 -210.5t-18.5 -211t-55.5 -128t-92 -62.5t-131 -16.5h-13q-72 0 -127 17.5t-95 63.5t-60.5 128t-20.5 211zM170 406q0 -106 13.5 -165t39 -86.5t60.5 -32.5t78 -5q37 0 70.5 7 t59 34.5t40 85t14.5 159.5t-12.5 163t-37 92.5t-58 41t-76.5 9.5q-45 0 -80 -7.5t-59.5 -37t-38 -91t-13.5 -167.5zM544 471q0 174 87 266t229 92q68 0 123 -20.5t94 -67.5t59.5 -121.5t20.5 -181.5v-92h-490q4 -133 61.5 -183t178.5 -50q76 0 160 22v-131q-35 -12 -160 -12 h-37q-86 0 -147.5 22.5t-101.5 77.5t-58.5 147.5t-18.5 231.5zM665 436h375q-2 92 -15.5 146.5t-37 82t-56 36t-73.5 8.5q-66 0 -103 -20.5t-56 -56.5t-25.5 -86t-8.5 -110z" />
<glyph unicode="&#x178;" horiz-adv-x="782" d="M27 1067h143l172 -455l47 -149l47 149l172 455h146l-295 -670v-397h-137v397zM141 1221q0 31 24.5 52t55.5 21q29 0 51.5 -21.5t22.5 -51.5q0 -31 -22.5 -51.5t-51.5 -20.5q-31 0 -55.5 20.5t-24.5 51.5zM481 1221q0 31 20.5 52t51.5 21t54 -21.5t23 -51.5 q0 -31 -23.5 -51.5t-53.5 -20.5q-31 0 -51.5 20.5t-20.5 51.5z" />
<glyph unicode="&#x2c6;" horiz-adv-x="495" d="M70 1133l143 155h70l143 -155h-66l-112 127l-109 -127h-69z" />
<glyph unicode="&#x2dc;" horiz-adv-x="444" d="M2 1135v34q0 57 27.5 89t87.5 32q18 0 47 -11t60.5 -23.5t63 -23.5t56.5 -11q61 0 62 96h47q0 -86 -31 -126t-82 -40q-23 0 -49.5 10t-56 23.5t-60.5 24t-59 10.5h-21q-20 -2 -32.5 -20.5t-16.5 -63.5h-43z" />
<glyph unicode="&#x2000;" horiz-adv-x="658" />
<glyph unicode="&#x2001;" horiz-adv-x="1317" />
<glyph unicode="&#x2002;" horiz-adv-x="658" />
<glyph unicode="&#x2003;" horiz-adv-x="1317" />
<glyph unicode="&#x2004;" horiz-adv-x="439" />
<glyph unicode="&#x2005;" horiz-adv-x="329" />
<glyph unicode="&#x2006;" horiz-adv-x="219" />
<glyph unicode="&#x2007;" horiz-adv-x="219" />
<glyph unicode="&#x2008;" horiz-adv-x="164" />
<glyph unicode="&#x2009;" horiz-adv-x="263" />
<glyph unicode="&#x200a;" horiz-adv-x="73" />
<glyph unicode="&#x2010;" horiz-adv-x="372" d="M68 541v80h227v-80h-227z" />
<glyph unicode="&#x2011;" horiz-adv-x="372" d="M68 541v80h227v-80h-227z" />
<glyph unicode="&#x2012;" horiz-adv-x="372" d="M68 541v80h227v-80h-227z" />
<glyph unicode="&#x2013;" horiz-adv-x="624" d="M68 541v80h489v-80h-489z" />
<glyph unicode="&#x2014;" horiz-adv-x="1003" d="M68 541v80h872v-80h-872z" />
<glyph unicode="&#x2018;" horiz-adv-x="169" d="M12 1018q0 53 28 111.5t93 89.5v-29q-31 -12 -52.5 -40t-27.5 -71q10 2 17.5 3t15.5 1q37 0 54.5 -25.5t17.5 -56.5t-15.5 -57t-44.5 -26q-37 0 -61.5 20t-24.5 80z" />
<glyph unicode="&#x2019;" horiz-adv-x="167" d="M10 1100q0 33 16.5 59.5t45.5 26.5q37 0 61.5 -19.5t24.5 -79.5q0 -53 -32 -111t-89 -89v28q23 12 44.5 40t35.5 71q-20 -4 -19 -4h-16q-39 0 -55.5 23.5t-16.5 54.5z" />
<glyph unicode="&#x201a;" horiz-adv-x="247" d="M29 14q0 33 16 59.5t45 26.5q37 0 61.5 -19.5t24.5 -78.5q0 -53 -27.5 -111.5t-93.5 -89.5v29q23 12 48.5 40t31.5 71q-20 -4 -18 -4h-17q-39 0 -55 23.5t-16 53.5z" />
<glyph unicode="&#x201c;" horiz-adv-x="362" d="M12 1018q0 53 28 111.5t93 89.5v-29q-31 -12 -52.5 -40t-27.5 -71q10 2 17.5 3t15.5 1q37 0 54.5 -25.5t17.5 -56.5t-15.5 -57t-44.5 -26q-37 0 -61.5 20t-24.5 80zM186 1018q0 53 30 111.5t87 89.5v-29q-23 -12 -44.5 -40t-27.5 -71q10 2 18.5 3t12.5 1q35 0 54.5 -22.5 t19.5 -54.5q0 -37 -21.5 -61.5t-52.5 -24.5q-29 0 -52.5 22.5t-23.5 75.5z" />
<glyph unicode="&#x201d;" horiz-adv-x="364" d="M10 1100q0 33 16.5 59.5t45.5 26.5q37 0 61.5 -19.5t24.5 -79.5q0 -53 -32 -111t-89 -89v28q23 12 44.5 40t35.5 71q-20 -4 -19 -4h-16q-39 0 -55.5 23.5t-16.5 54.5zM193 1098q0 39 21.5 63.5t49.5 24.5q29 0 54.5 -22.5t25.5 -76.5q0 -53 -31.5 -111t-89.5 -89v28 q23 12 44.5 40t27.5 71q-20 -4 -31 -4q-35 0 -53 22.5t-18 53.5z" />
<glyph unicode="&#x201e;" horiz-adv-x="409" d="M29 14q0 33 16 59.5t45 26.5q37 0 61.5 -19.5t24.5 -78.5q0 -53 -27.5 -111.5t-93.5 -89.5v29q23 12 48.5 40t31.5 71q-20 -4 -18 -4h-17q-39 0 -55 23.5t-16 53.5zM223 14q0 33 16.5 59.5t45.5 26.5q35 0 60.5 -19.5t25.5 -78.5q0 -53 -32 -111.5t-89 -89.5v29 q23 12 45.5 40t34.5 71q-20 -4 -19 -4h-16q-39 0 -55.5 23.5t-16.5 53.5z" />
<glyph unicode="&#x2022;" horiz-adv-x="692" d="M51 526q0 59 22.5 111.5t60.5 91.5t90 61.5t112 22.5q59 0 111.5 -22.5t91.5 -61.5t61.5 -91t22.5 -112q0 -59 -22.5 -111.5t-61.5 -90t-91.5 -60t-111.5 -22.5t-111.5 22.5t-90.5 60t-60.5 90t-22.5 111.5z" />
<glyph unicode="&#x2026;" horiz-adv-x="917" d="M25 27q0 33 21.5 54t53.5 21q41 0 62.5 -21.5t21.5 -53.5q0 -33 -21.5 -54.5t-62.5 -21.5q-33 0 -54 21.5t-21 54.5zM377 27q0 33 21.5 54t54.5 21t56 -21.5t23 -53.5q0 -33 -23.5 -54.5t-55.5 -21.5q-33 0 -54.5 21.5t-21.5 54.5zM723 27q0 33 25.5 54t58.5 21 t54.5 -21.5t21.5 -53.5q0 -33 -21.5 -54.5t-54.5 -21.5t-58.5 21.5t-25.5 54.5z" />
<glyph unicode="&#x202f;" horiz-adv-x="263" />
<glyph unicode="&#x2039;" horiz-adv-x="329" d="M27 539v84l233 157v-75l-205 -119l205 -125v-72z" />
<glyph unicode="&#x203a;" horiz-adv-x="335" d="M68 389v76l198 123l-198 119v73l233 -151v-84z" />
<glyph unicode="&#x205f;" horiz-adv-x="329" />
<glyph unicode="&#x20ac;" horiz-adv-x="667" d="M-25 383v78h84v151h-84v78h88q10 129 41 206t76 116t101.5 50t117.5 11q70 0 113 -3t66 -7l-37 -119q-47 6 -97 6h-30q-47 0 -85 -5t-67 -30.5t-48 -78t-28 -146.5h275l-25 -78h-256v-116v-19q0 -14 2 -16h207l-24 -78h-181q8 -98 28.5 -152.5t52.5 -79t74 -29.5t91 -5 q51 0 91 2t65 8v-123q-41 -12 -191 -12q-61 0 -116.5 12t-100.5 54t-74.5 119t-40.5 206h-88z" />
<glyph unicode="&#x2122;" horiz-adv-x="942" d="M59 995v72h330v-72h-119v-460h-88v460h-123zM463 535v532h80l92 -254l35 -106l35 108l94 252h67v-532h-82l2 192l9 115l-43 -111l-82 -196h-2l-80 186l-49 121l6 -127v-180h-82z" />
<glyph unicode="&#xe000;" horiz-adv-x="819" d="M0 0v819h819v-819h-819z" />
</font>
</defs>
</svg>
